<svg width="1280" height="1280" version="1.1" xmlns="http://www.w3.org/2000/svg" desc="Created with imagetracer.js version 1.2.6" ><path fill="rgb(26,32,52)" stroke="rgb(26,32,52)" stroke-width="1" opacity="1" d="M 800 0 L 840 0 L 840 40 L 880 40 L 880 80 L 840 80 L 840 40 L 800 40 L 800 0 Z " /><path fill="rgb(26,32,52)" stroke="rgb(26,32,52)" stroke-width="1" opacity="1" d="M 880 120 L 920 120 L 920 160 L 880 160 L 880 120 Z " /><path fill="rgb(26,32,52)" stroke="rgb(26,32,52)" stroke-width="1" opacity="1" d="M 720 200 L 760 200 L 760 240 L 720 240 L 720 200 Z " /><path fill="rgb(26,32,52)" stroke="rgb(26,32,52)" stroke-width="1" opacity="1" d="M 920 200 L 960 200 L 960 240 L 920 240 L 920 200 Z " /><path fill="rgb(26,32,52)" stroke="rgb(26,32,52)" stroke-width="1" opacity="1" d="M 200 240 L 240 240 L 240 280 L 200 280 L 200 240 Z " /><path fill="rgb(26,32,52)" stroke="rgb(26,32,52)" stroke-width="1" opacity="1" d="M 960 280 L 1000 280 L 1000 400 L 1040 400 L 1040 440 L 1120 440 L 1120 480 L 1160 480 L 1160 520 L 1120 520 L 1120 560 L 1080 560 L 1080 520 L 1120 520 L 1120 480 L 1040 480 L 1040 440 L 1000 440 L 1000 400 L 960 400 L 960 280 Z " /><path fill="rgb(26,32,52)" stroke="rgb(26,32,52)" stroke-width="1" opacity="1" d="M 120 320 L 160 320 L 160 360 L 120 360 L 120 320 Z " /><path fill="rgb(26,32,52)" stroke="rgb(26,32,52)" stroke-width="1" opacity="1" d="M 320 320 L 360 320 L 360 360 L 320 360 L 320 320 Z " /><path fill="rgb(26,32,52)" stroke="rgb(26,32,52)" stroke-width="1" opacity="1" d="M 1160 600 L 1200 600 L 1200 640 L 1160 640 L 1160 720 L 1120 720 L 1120 800 L 1080 800 L 1080 840 L 1120 840 L 1120 880 L 1080 880 L 1080 960 L 1120 960 L 1120 1000 L 1160 1000 L 1160 1040 L 1200 1040 L 1200 1160 L 1160 1160 L 1160 1199.5 L 1159.5 1200 L 1040 1200 L 1040 1240 L 1000 1240 L 1000 1280 L 960 1280 L 960 1240 L 1000 1240 L 1000 1160 L 960 1160 L 960 1080 L 1000 1080 L 1000 1120 L 1040 1120 L 1040 1160 L 1080 1160 L 1080 1120 L 1120 1120 L 1120 1160 L 1160 1160 L 1160 1040 L 1120 1040 L 1120 1000 L 1080 1000 L 1080 960 L 1040 960 L 1040 880 L 1080 880 L 1080 840 L 1040 840 L 1040 800 L 1080 800 L 1080 720 L 1120 720 L 1120 640 L 1160 640 L 1160 600 Z " /><path fill="rgb(26,32,52)" stroke="rgb(26,32,52)" stroke-width="1" opacity="1" d="M 200 640 L 239.5 640 L 240 640.5 L 240 800 L 200.5 800 L 200 799.5 L 200 640 Z " /><path fill="rgb(26,32,52)" stroke="rgb(26,32,52)" stroke-width="1" opacity="1" d="M 800 720 L 960 720 L 960 760 L 1000 760 L 1000 800 L 960 800 L 960 760.5 L 959.5 760 L 800 760 L 800 720 Z " /><path fill="rgb(26,32,52)" stroke="rgb(26,32,52)" stroke-width="1" opacity="1" d="M 520 760 L 679.5 760 L 680 760.5 L 680 800 L 520.5 800 L 520 800.5 L 520 840 L 480 840 L 480 800 L 520 800 L 520 760 Z " /><path fill="rgb(26,32,52)" stroke="rgb(26,32,52)" stroke-width="1" opacity="1" d="M 960 840 L 1000 840 L 1000 880 L 960 880 L 960 920 L 920 920 L 920 960 L 880 960 L 880 920 L 920 920 L 920 880 L 960 880 L 960 840 Z " /><path fill="rgb(26,32,52)" stroke="rgb(26,32,52)" stroke-width="1" opacity="1" d="M 160 920 L 200 920 L 200 960 L 160 960 L 160 920 Z " /><path fill="rgb(26,32,52)" stroke="rgb(26,32,52)" stroke-width="1" opacity="1" d="M 360 920 L 400 920 L 400 960 L 360 960 L 360 920 Z " /><path fill="rgb(26,32,52)" stroke="rgb(26,32,52)" stroke-width="1" opacity="1" d="M 600 960 L 680 960 L 680 1000 L 600 1000 L 600 960 Z " /><path fill="rgb(26,32,52)" stroke="rgb(26,32,52)" stroke-width="1" opacity="1" d="M 40 1000 L 80 1000 L 80 1119.5 L 80.5 1120 L 120 1120 L 120 1160 L 80 1160 L 80 1120 L 40 1120 L 40 1000 Z " /><path fill="rgb(26,32,52)" stroke="rgb(26,32,52)" stroke-width="1" opacity="1" d="M 840 1040 L 880 1040 L 880 1080 L 840 1080 L 840 1040 Z " /><path fill="rgb(26,32,52)" stroke="rgb(26,32,52)" stroke-width="1" opacity="1" d="M 520 1080 L 560 1080 L 560 1120 L 520 1120 L 520 1200 L 480 1200 L 480 1120 L 520 1120 L 520 1080 Z " /><path fill="rgb(26,32,52)" stroke="rgb(26,32,52)" stroke-width="1" opacity="1" d="M 280 1160 L 320 1160 L 320 1200 L 280 1200 L 280 1160 Z " /><path fill="rgb(26,32,52)" stroke="rgb(26,32,52)" stroke-width="1" opacity="1" d="M 400 1160 L 440 1160 L 440 1200 L 400 1200 L 400 1160 Z " /><path fill="rgb(26,32,52)" stroke="rgb(26,32,52)" stroke-width="1" opacity="1" d="M 880 1160 L 920 1160 L 920 1240 L 880 1240 L 880 1160 Z " /><path fill="rgb(26,32,52)" stroke="rgb(26,32,52)" stroke-width="1" opacity="1" d="M 80 1200 L 120 1200 L 120 1240 L 160 1240 L 160 1280 L 120 1280 L 120 1240 L 80 1240 L 80 1200 Z " /><path fill="rgb(237,244,253)" stroke="rgb(237,244,253)" stroke-width="1" opacity="1" d="M 840 160 L 880 160 L 880 200 L 920 200 L 920 280 L 959.5 280 L 960 280.5 L 960 400 L 1000 400 L 1000 440 L 1040 440 L 1040 480 L 1120 480 L 1120 520 L 1080 520 L 1080 560 L 1120 560 L 1120 600 L 1160 600 L 1160 640 L 1120 640 L 1120 680 L 1080 680 L 1080 800 L 1000 800 L 1000 760 L 1040 760 L 1040 680 L 1000 680 L 1000 720 L 960 720 L 960 640 L 920 640 L 920 600 L 840 600 L 840 680 L 760 680 L 760 720 L 720 720 L 720 640 L 640 640 L 640 600 L 600 600 L 600 680 L 520 680 L 520 720 L 560 720 L 560 760 L 480 760 L 480 840 L 520 840 L 520 800 L 560 800 L 560 920 L 480 920 L 480 880 L 440 880 L 440 960 L 520 960 L 520 1000 L 400 1000 L 400 880 L 360 880 L 360 800 L 320 800 L 320 760 L 280 760 L 280 800 L 240 800 L 240 880 L 200 880 L 200 920 L 160 920 L 160 880 L 200 880 L 200 800 L 239.5 800 L 240 799.5 L 240 640 L 280 640 L 280 600 L 320 600 L 320 680 L 360 680 L 360 520.5 L 359.5 520 L 320 520 L 320 440 L 280 440 L 280 480 L 240 480 L 240 440 L 200.5 440 L 200 439.5 L 200 320 L 160 320 L 160 280 L 240 280 L 240 320 L 280 320 L 280 360 L 320 360 L 320 400 L 400 400 L 400 320 L 440 320 L 440 280 L 559.5 280 L 560 279.5 L 560 240.5 L 560.5 240 L 760 240 L 760 280 L 800 280 L 800 200 L 840 200 L 840 160 Z M 840 200 L 840 240 L 880 240 L 880 200 L 840 200 Z M 560 280 L 560 320 L 640 320 L 640 280 L 560 280 Z M 840 280 L 840 320 L 880 320 L 880 280 L 840 280 Z M 760 320 L 760 360 L 800 360 L 800 320 L 760 320 Z M 560 360 L 560 400 L 600 400 L 600 360 L 560 360 Z M 400 400 L 400 440 L 440 440 L 440 400 L 400 400 Z M 520 400 L 520 440 L 560 440 L 560 400 L 520 400 Z M 720 400 L 720 440 L 760 440 L 760 400 L 720 400 Z M 360 480 L 360 520 L 400 520 L 400 480 L 360 480 Z M 800 480 L 800 520 L 840 520 L 840 480 L 800 480 Z M 480 520 L 480 560 L 520 560 L 520 520 L 480 520 Z M 440 560 L 440 600 L 480 600 L 480 560 L 440 560 Z M 400 680 L 400 760 L 440 760 L 440 680 L 400 680 Z M 400 840 L 400 880 L 440 880 L 440 840 L 400 840 Z " /><path fill="rgb(237,244,253)" stroke="rgb(237,244,253)" stroke-width="1" opacity="1" d="M 840 760 L 880 760 L 880 800 L 840 800 L 840 760 Z " /><path fill="rgb(237,244,253)" stroke="rgb(237,244,253)" stroke-width="1" opacity="1" d="M 920 760 L 960 760 L 960 840 L 920 840 L 920 760 Z " /><path fill="rgb(237,244,253)" stroke="rgb(237,244,253)" stroke-width="1" opacity="1" d="M 600 800 L 640 800 L 640 840 L 600 840 L 600 800 Z " /><path fill="rgb(237,244,253)" stroke="rgb(237,244,253)" stroke-width="1" opacity="1" d="M 280 840 L 320 840 L 320 920 L 360 920 L 360 960 L 320 960 L 320 1000 L 280 1000 L 280 1080 L 320 1080 L 320 1040 L 360 1040 L 360 1080 L 320 1080 L 320 1120 L 280 1120 L 280 1160 L 240 1160 L 240 1120 L 280 1120 L 280 1080 L 200 1080 L 200 1040 L 240 1040 L 240 960 L 280 960 L 280 840 Z " /><path fill="rgb(237,244,253)" stroke="rgb(237,244,253)" stroke-width="1" opacity="1" d="M 1000 840 L 1040 840 L 1040 920 L 1000 920 L 1000 840 Z " /><path fill="rgb(237,244,253)" stroke="rgb(237,244,253)" stroke-width="1" opacity="1" d="M 920 960 L 960 960 L 960 1000 L 920 1000 L 920 960 Z " /><path fill="rgb(237,244,253)" stroke="rgb(237,244,253)" stroke-width="1" opacity="1" d="M 80 1000 L 120 1000 L 120 1079.5 L 120.5 1080 L 160 1080 L 160 1160 L 120 1160 L 120 1120 L 80 1120 L 80 1000 Z " /><path fill="rgb(237,244,253)" stroke="rgb(237,244,253)" stroke-width="1" opacity="1" d="M 800 1000 L 840 1000 L 840 1040 L 800 1040 L 800 1160 L 840 1160 L 840 1120 L 880 1120 L 880 1240 L 600 1240 L 600 1160 L 640 1160 L 640 1120 L 680 1120 L 680 1080 L 720 1080 L 720 1160 L 760 1160 L 760 1040.5 L 760.5 1040 L 800 1040 L 800 1000 Z " /><path fill="rgb(237,244,253)" stroke="rgb(237,244,253)" stroke-width="1" opacity="1" d="M 1080 1000 L 1120 1000 L 1120 1040 L 1160 1040 L 1160 1080 L 1120 1080 L 1120 1040 L 1080 1040 L 1080 1000 Z " /><path fill="rgb(237,244,253)" stroke="rgb(237,244,253)" stroke-width="1" opacity="1" d="M 1040 1080 L 1080 1080 L 1080 1120 L 1040 1120 L 1040 1080 Z " /><path fill="rgb(237,244,253)" stroke="rgb(237,244,253)" stroke-width="1" opacity="1" d="M 360 1120 L 440 1120 L 440 1160 L 480 1160 L 480 1200 L 440 1200 L 440 1160 L 400 1160 L 400 1200 L 320 1200 L 320 1160 L 360 1160 L 360 1120 Z " /><path fill="rgb(237,244,253)" stroke="rgb(237,244,253)" stroke-width="1" opacity="1" d="M 200 1200 L 240 1200 L 240 1240 L 200 1240 L 200 1200 Z " /><path fill="rgb(0,0,0)" stroke="rgb(0,0,0)" stroke-width="1" opacity="0" d="M 0 0 L 799.5 0 L 800 0.5 L 800 40 L 760 40 L 760 159.5 L 759.5 160 L 720 160 L 720 200 L 560.5 200 L 560 200.5 L 560 240 L 480 240 L 480 280 L 400 280 L 400 320 L 320 320 L 320 280 L 280 280 L 280 240 L 200 240 L 200 200.5 L 199.5 200 L 80 200 L 80 240 L 40 240 L 40 280 L 80 280 L 80 320 L 120 320 L 120 400 L 159.5 400 L 160 400.5 L 160 520 L 200 520 L 200 560 L 240 560 L 240 640 L 200 640 L 200 799.5 L 199.5 800 L 160 800 L 160 880 L 80 880 L 80 920 L 40 920 L 40 960 L 0 960 L 0 0 Z " /><path fill="rgb(0,0,0)" stroke="rgb(0,0,0)" stroke-width="1" opacity="0" d="M 840 0 L 1280 0 L 1280 1280 L 1000.5 1280 L 1000 1279.5 L 1000 1240 L 1040 1240 L 1040 1200 L 1159.5 1200 L 1160 1199.5 L 1160 1160 L 1200 1160 L 1200 1040 L 1160 1040 L 1160 1000 L 1120 1000 L 1120 960 L 1080 960 L 1080 880 L 1120 880 L 1120 840 L 1080 840 L 1080 800 L 1120 800 L 1120 720 L 1160 720 L 1160 640 L 1200 640 L 1200 600 L 1160 600 L 1160 560 L 1120 560 L 1120 520 L 1160 520 L 1160 480 L 1120 480 L 1120 440 L 1040 440 L 1040 400 L 1000 400 L 1000 280 L 960 280 L 960 200 L 920 200 L 920 120 L 880 120 L 880 40 L 840 40 L 840 0 Z M 1040 200 L 1040 280 L 1080 280 L 1080 320 L 1120 320 L 1120 280 L 1160 280 L 1160 200 L 1120 200 L 1120 240 L 1080 240 L 1080 200 L 1040 200 Z " /><path fill="rgb(0,0,0)" stroke="rgb(0,0,0)" stroke-width="1" opacity="0" d="M 200 920 L 240 920 L 240 960 L 200 960 L 200 1000 L 160 1000 L 160 960 L 200 960 L 200 920 Z " /><path fill="rgb(0,0,0)" stroke="rgb(0,0,0)" stroke-width="1" opacity="0" d="M 0 1040 L 40 1040 L 40 1120 L 80 1120 L 80 1239.5 L 80.5 1240 L 120 1240 L 120 1280 L 0 1280 L 0 1040 Z " /><path fill="rgb(82,108,152)" stroke="rgb(82,108,152)" stroke-width="1" opacity="1" d="M 240 280 L 280 280 L 280 320 L 240 320 L 240 280 Z " /><path fill="rgb(82,108,152)" stroke="rgb(82,108,152)" stroke-width="1" opacity="1" d="M 200 480 L 240 480 L 240 520 L 200 520 L 200 480 Z " /><path fill="rgb(82,108,152)" stroke="rgb(82,108,152)" stroke-width="1" opacity="1" d="M 360 480 L 400 480 L 400 520 L 360 520 L 360 480 Z " /><path fill="rgb(82,108,152)" stroke="rgb(82,108,152)" stroke-width="1" opacity="1" d="M 320 600 L 360 600 L 360 680 L 320 680 L 320 600 Z " /><path fill="rgb(82,108,152)" stroke="rgb(82,108,152)" stroke-width="1" opacity="1" d="M 960 720 L 1000 720 L 1000 760 L 960 760 L 960 720 Z " /><path fill="rgb(82,108,152)" stroke="rgb(82,108,152)" stroke-width="1" opacity="1" d="M 280 760 L 320 760 L 320 840 L 280 840 L 280 880 L 240 880 L 240 800 L 280 800 L 280 760 Z " /><path fill="rgb(82,108,152)" stroke="rgb(82,108,152)" stroke-width="1" opacity="1" d="M 560 800 L 600 800 L 600 880 L 560 880 L 560 800 Z " /><path fill="rgb(82,108,152)" stroke="rgb(82,108,152)" stroke-width="1" opacity="1" d="M 800 800 L 840 800 L 840 840 L 800 840 L 800 800 Z " /><path fill="rgb(82,108,152)" stroke="rgb(82,108,152)" stroke-width="1" opacity="1" d="M 960 800 L 1040 800 L 1040 840 L 1080 840 L 1080 880 L 1040 880 L 1040 840 L 960 840 L 960 800 Z " /><path fill="rgb(82,108,152)" stroke="rgb(82,108,152)" stroke-width="1" opacity="1" d="M 520 920 L 560 920 L 560 960 L 520 960 L 520 920 Z " /><path fill="rgb(82,108,152)" stroke="rgb(82,108,152)" stroke-width="1" opacity="1" d="M 960 920 L 1000 920 L 1000 960 L 960 960 L 960 920 Z " /><path fill="rgb(82,108,152)" stroke="rgb(82,108,152)" stroke-width="1" opacity="1" d="M 360 960 L 400 960 L 400 1000 L 360 1000 L 360 960 Z " /><path fill="rgb(82,108,152)" stroke="rgb(82,108,152)" stroke-width="1" opacity="1" d="M 680 960 L 720 960 L 720 1000 L 680 1000 L 680 960 Z " /><path fill="rgb(82,108,152)" stroke="rgb(82,108,152)" stroke-width="1" opacity="1" d="M 800 960 L 840 960 L 840 1000 L 880 1000 L 880 1040 L 840 1040 L 840 1080 L 880 1080 L 880 1120 L 840 1120 L 840 1080 L 800 1080 L 800 1040 L 840 1040 L 840 1000 L 800 1000 L 800 960 Z " /><path fill="rgb(82,108,152)" stroke="rgb(82,108,152)" stroke-width="1" opacity="1" d="M 440 1000 L 480 1000 L 480 1040 L 440 1040 L 440 1000 Z " /><path fill="rgb(82,108,152)" stroke="rgb(82,108,152)" stroke-width="1" opacity="1" d="M 1040 1000 L 1080 1000 L 1080 1040 L 1040 1040 L 1040 1000 Z " /><path fill="rgb(82,108,152)" stroke="rgb(82,108,152)" stroke-width="1" opacity="1" d="M 160 1040 L 200 1040 L 200 1080 L 240 1080 L 240 1120 L 200 1120 L 200 1080 L 160 1080 L 160 1040 Z " /><path fill="rgb(82,108,152)" stroke="rgb(82,108,152)" stroke-width="1" opacity="1" d="M 280 1040 L 320 1040 L 320 1080 L 400 1080 L 400 1120 L 320 1120 L 320 1080 L 280 1080 L 280 1040 Z " /><path fill="rgb(82,108,152)" stroke="rgb(82,108,152)" stroke-width="1" opacity="1" d="M 520 1040 L 560 1040 L 560 1080 L 520 1080 L 520 1040 Z " /><path fill="rgb(82,108,152)" stroke="rgb(82,108,152)" stroke-width="1" opacity="1" d="M 720 1040 L 760 1040 L 760 1080 L 720 1080 L 720 1040 Z " /><path fill="rgb(82,108,152)" stroke="rgb(82,108,152)" stroke-width="1" opacity="1" d="M 920 1080 L 960 1080 L 960 1120 L 920 1120 L 920 1080 Z " /><path fill="rgb(82,108,152)" stroke="rgb(82,108,152)" stroke-width="1" opacity="1" d="M 280 1240 L 439.5 1240 L 440 1240.5 L 440 1280 L 280.5 1280 L 280 1279.5 L 280 1240 Z " /><path fill="rgb(114,160,214)" stroke="rgb(114,160,214)" stroke-width="1" opacity="1" d="M 800 40 L 840 40 L 840 120 L 880 120 L 880 160 L 840 160 L 840 200 L 800 200 L 800 240 L 760 240 L 760 160 L 799.5 160 L 800 159.5 L 800 40 Z " /><path fill="rgb(114,160,214)" stroke="rgb(114,160,214)" stroke-width="1" opacity="1" d="M 1040 200 L 1080 200 L 1080 240 L 1120 240 L 1120 200 L 1160 200 L 1160 280 L 1120 280 L 1120 320 L 1080 320 L 1080 280 L 1040 280 L 1040 200 Z " /><path fill="rgb(114,160,214)" stroke="rgb(114,160,214)" stroke-width="1" opacity="1" d="M 80 240 L 120 240 L 120 280 L 160 280 L 160 240 L 200 240 L 200 280 L 160 280 L 160 320 L 120 320 L 120 280 L 80 280 L 80 240 Z " /><path fill="rgb(114,160,214)" stroke="rgb(114,160,214)" stroke-width="1" opacity="1" d="M 280 320 L 320 320 L 320 360 L 280 360 L 280 320 Z " /><path fill="rgb(114,160,214)" stroke="rgb(114,160,214)" stroke-width="1" opacity="1" d="M 360 360 L 400 360 L 400 400 L 360 400 L 360 360 Z " /><path fill="rgb(114,160,214)" stroke="rgb(114,160,214)" stroke-width="1" opacity="1" d="M 560 360 L 600 360 L 600 400 L 560 400 L 560 440 L 520 440 L 520 400 L 560 400 L 560 360 Z " /><path fill="rgb(114,160,214)" stroke="rgb(114,160,214)" stroke-width="1" opacity="1" d="M 840 600 L 920 600 L 920 640 L 960 640 L 960 680 L 920 680 L 920 640 L 840 640 L 840 600 Z " /><path fill="rgb(114,160,214)" stroke="rgb(114,160,214)" stroke-width="1" opacity="1" d="M 600 640 L 680 640 L 680 720 L 760 720 L 760 680 L 800 680 L 800 760 L 760 760 L 760 800 L 680 800 L 680 720 L 640 720 L 640 680 L 600 680 L 600 720 L 520 720 L 520 680 L 600 680 L 600 640 Z " /><path fill="rgb(114,160,214)" stroke="rgb(114,160,214)" stroke-width="1" opacity="1" d="M 880 760 L 920 760 L 920 840 L 840 840 L 840 800 L 880 800 L 880 760 Z " /><path fill="rgb(114,160,214)" stroke="rgb(114,160,214)" stroke-width="1" opacity="1" d="M 600 840 L 680 840 L 680 880 L 600 880 L 600 840 Z " /><path fill="rgb(114,160,214)" stroke="rgb(114,160,214)" stroke-width="1" opacity="1" d="M 80 920 L 120 920 L 120 1000 L 160 1000 L 160 1040 L 120 1040 L 120 1000 L 40 1000 L 40 960 L 80 960 L 80 920 Z " /><path fill="rgb(114,160,214)" stroke="rgb(114,160,214)" stroke-width="1" opacity="1" d="M 440 920 L 480 920 L 480 960 L 440 960 L 440 920 Z " /><path fill="rgb(114,160,214)" stroke="rgb(114,160,214)" stroke-width="1" opacity="1" d="M 920 920 L 960 920 L 960 960 L 1040 960 L 1040 1000 L 960 1000 L 960 960 L 920 960 L 920 920 Z " /><path fill="rgb(114,160,214)" stroke="rgb(114,160,214)" stroke-width="1" opacity="1" d="M 560 960 L 600 960 L 600 1040 L 520 1040 L 520 1120 L 440 1120 L 440 1080 L 400 1080 L 400 1040 L 320 1040 L 320 1000 L 400 1000 L 400 1040 L 440 1040 L 440 1080 L 480 1080 L 480 1040 L 520 1040 L 520 1000 L 560 1000 L 560 960 Z " /><path fill="rgb(114,160,214)" stroke="rgb(114,160,214)" stroke-width="1" opacity="1" d="M 840 960 L 880 960 L 880 1000 L 840 1000 L 840 960 Z " /><path fill="rgb(114,160,214)" stroke="rgb(114,160,214)" stroke-width="1" opacity="1" d="M 720 1120 L 760 1120 L 760 1160 L 720 1160 L 720 1120 Z " /><path fill="rgb(114,160,214)" stroke="rgb(114,160,214)" stroke-width="1" opacity="1" d="M 800 1120 L 840 1120 L 840 1160 L 800 1160 L 800 1120 Z " /><path fill="rgb(114,160,214)" stroke="rgb(114,160,214)" stroke-width="1" opacity="1" d="M 160 1160 L 200 1160 L 200 1200 L 160 1200 L 160 1160 Z " /><path fill="rgb(114,160,214)" stroke="rgb(114,160,214)" stroke-width="1" opacity="1" d="M 960 1160 L 1000 1160 L 1000 1200 L 960 1200 L 960 1240 L 920 1240 L 920 1280 L 880 1280 L 880 1240 L 920 1240 L 920 1200 L 960 1200 L 960 1160 Z " /><path fill="rgb(114,160,214)" stroke="rgb(114,160,214)" stroke-width="1" opacity="1" d="M 280 1200 L 439.5 1200 L 440 1200.5 L 440 1240 L 280.5 1240 L 280 1240.5 L 280 1280 L 240 1280 L 240 1240 L 280 1240 L 280 1200 Z " /><path fill="rgb(241,219,215)" stroke="rgb(241,219,215)" stroke-width="1" opacity="1" d="M 840 640 L 920 640 L 920 680 L 960 680 L 960 720 L 800.5 720 L 800 719.5 L 800 680 L 840 680 L 840 640 Z " /><path fill="rgb(241,219,215)" stroke="rgb(241,219,215)" stroke-width="1" opacity="1" d="M 600 680 L 640 680 L 640 720 L 680 720 L 680 760 L 560 760 L 560 720 L 600 720 L 600 680 Z " /><path fill="rgb(241,219,215)" stroke="rgb(241,219,215)" stroke-width="1" opacity="1" d="M 1000 680 L 1040 680 L 1040 720 L 1000 720 L 1000 680 Z " /><path fill="rgb(241,219,215)" stroke="rgb(241,219,215)" stroke-width="1" opacity="1" d="M 480 760 L 520 760 L 520 800 L 480 800 L 480 760 Z " /><path fill="rgb(241,219,215)" stroke="rgb(241,219,215)" stroke-width="1" opacity="1" d="M 760 760 L 800 760 L 800 840 L 959.5 840 L 960 840.5 L 960 880 L 920 880 L 920 920 L 880 920 L 880 960 L 800 960 L 800 1040 L 720 1040 L 720 1080 L 680 1080 L 680 1120 L 560 1120 L 560 1040 L 640 1040 L 640 1000 L 720 1000 L 720 960 L 560 960 L 560 880 L 680 880 L 680 800 L 760 800 L 760 760 Z M 720 880 L 720 920 L 760 920 L 760 880 L 720 880 Z " /><path fill="rgb(241,219,215)" stroke="rgb(241,219,215)" stroke-width="1" opacity="1" d="M 360 880 L 400 880 L 400 920 L 360 920 L 360 880 Z " /><path fill="rgb(241,219,215)" stroke="rgb(241,219,215)" stroke-width="1" opacity="1" d="M 880 1000 L 1000 1000 L 1000 1080 L 880 1080 L 880 1000 Z " /><path fill="rgb(165,192,229)" stroke="rgb(165,192,229)" stroke-width="1" opacity="1" d="M 840 200 L 880 200 L 880 240 L 840 240 L 840 200 Z " /><path fill="rgb(165,192,229)" stroke="rgb(165,192,229)" stroke-width="1" opacity="1" d="M 120 240 L 160 240 L 160 280 L 120 280 L 120 240 Z " /><path fill="rgb(165,192,229)" stroke="rgb(165,192,229)" stroke-width="1" opacity="1" d="M 560 280 L 640 280 L 640 320 L 560 320 L 560 280 Z " /><path fill="rgb(165,192,229)" stroke="rgb(165,192,229)" stroke-width="1" opacity="1" d="M 160 320 L 200 320 L 200 400 L 160 400 L 160 320 Z " /><path fill="rgb(165,192,229)" stroke="rgb(165,192,229)" stroke-width="1" opacity="1" d="M 760 320 L 800 320 L 800 360 L 760 360 L 760 320 Z " /><path fill="rgb(165,192,229)" stroke="rgb(165,192,229)" stroke-width="1" opacity="1" d="M 320 360 L 360 360 L 360 400 L 320 400 L 320 360 Z " /><path fill="rgb(165,192,229)" stroke="rgb(165,192,229)" stroke-width="1" opacity="1" d="M 400 400 L 440 400 L 440 440 L 400 440 L 400 400 Z " /><path fill="rgb(165,192,229)" stroke="rgb(165,192,229)" stroke-width="1" opacity="1" d="M 720 400 L 760 400 L 760 440 L 720 440 L 720 400 Z " /><path fill="rgb(165,192,229)" stroke="rgb(165,192,229)" stroke-width="1" opacity="1" d="M 200 440 L 240 440 L 240 480 L 280 480 L 280 440 L 320 440 L 320 520 L 360 520 L 360 560 L 320 560 L 320 600 L 280 600 L 280 520 L 240 520 L 240 480 L 200 480 L 200 440 Z " /><path fill="rgb(165,192,229)" stroke="rgb(165,192,229)" stroke-width="1" opacity="1" d="M 800 480 L 840 480 L 840 520 L 800 520 L 800 480 Z " /><path fill="rgb(165,192,229)" stroke="rgb(165,192,229)" stroke-width="1" opacity="1" d="M 480 520 L 520 520 L 520 560 L 480 560 L 480 600 L 440 600 L 440 560 L 480 560 L 480 520 Z " /><path fill="rgb(165,192,229)" stroke="rgb(165,192,229)" stroke-width="1" opacity="1" d="M 600 600 L 640 600 L 640 640 L 600 640 L 600 600 Z " /><path fill="rgb(165,192,229)" stroke="rgb(165,192,229)" stroke-width="1" opacity="1" d="M 680 640 L 720 640 L 720 720 L 680 720 L 680 640 Z " /><path fill="rgb(165,192,229)" stroke="rgb(165,192,229)" stroke-width="1" opacity="1" d="M 400 680 L 440 680 L 440 760 L 400 760 L 400 680 Z " /><path fill="rgb(165,192,229)" stroke="rgb(165,192,229)" stroke-width="1" opacity="1" d="M 1080 680 L 1120 680 L 1120 720 L 1080 720 L 1080 680 Z " /><path fill="rgb(165,192,229)" stroke="rgb(165,192,229)" stroke-width="1" opacity="1" d="M 1000 720 L 1040 720 L 1040 760 L 1000 760 L 1000 720 Z " /><path fill="rgb(165,192,229)" stroke="rgb(165,192,229)" stroke-width="1" opacity="1" d="M 320 800 L 360 800 L 360 840 L 320 840 L 320 800 Z " /><path fill="rgb(165,192,229)" stroke="rgb(165,192,229)" stroke-width="1" opacity="1" d="M 400 840 L 440 840 L 440 880 L 480 880 L 480 920 L 520 920 L 520 960 L 560 960 L 560 1000 L 520 1000 L 520 1040 L 480 1040 L 480 1000 L 520 1000 L 520 960 L 480 960 L 480 920 L 440 920 L 440 880 L 400 880 L 400 840 Z " /><path fill="rgb(165,192,229)" stroke="rgb(165,192,229)" stroke-width="1" opacity="1" d="M 200 880 L 240 880 L 240 920 L 200 920 L 200 880 Z " /><path fill="rgb(165,192,229)" stroke="rgb(165,192,229)" stroke-width="1" opacity="1" d="M 960 880 L 1000 880 L 1000 920 L 1040 920 L 1040 960 L 1080 960 L 1080 1000 L 1040 1000 L 1040 1040 L 1120 1040 L 1120 1080 L 1160 1080 L 1160 1160 L 1120 1160 L 1120 1120 L 1080 1120 L 1080 1160 L 1040 1160 L 1040 1120 L 1000.5 1120 L 1000 1119.5 L 1000 1000 L 1040 1000 L 1040 960 L 1000 960 L 1000 920 L 960 920 L 960 880 Z M 1040 1080 L 1040 1120 L 1080 1120 L 1080 1080 L 1040 1080 Z " /><path fill="rgb(165,192,229)" stroke="rgb(165,192,229)" stroke-width="1" opacity="1" d="M 320 960 L 360 960 L 360 1000 L 320 1000 L 320 1040 L 280 1040 L 280 1000 L 320 1000 L 320 960 Z " /><path fill="rgb(165,192,229)" stroke="rgb(165,192,229)" stroke-width="1" opacity="1" d="M 120 1040 L 160 1040 L 160 1080 L 120 1080 L 120 1040 Z " /><path fill="rgb(165,192,229)" stroke="rgb(165,192,229)" stroke-width="1" opacity="1" d="M 720 1080 L 760 1080 L 760 1120 L 720 1120 L 720 1080 Z " /><path fill="rgb(165,192,229)" stroke="rgb(165,192,229)" stroke-width="1" opacity="1" d="M 800 1080 L 840 1080 L 840 1120 L 800 1120 L 800 1080 Z " /><path fill="rgb(165,192,229)" stroke="rgb(165,192,229)" stroke-width="1" opacity="1" d="M 880 1080 L 920 1080 L 920 1120 L 960 1120 L 960 1200 L 1000 1200 L 1000 1240 L 960 1240 L 960 1280 L 920 1280 L 920 1240 L 960 1240 L 960 1200 L 920 1200 L 920 1160 L 880 1160 L 880 1080 Z " /><path fill="rgb(165,192,229)" stroke="rgb(165,192,229)" stroke-width="1" opacity="1" d="M 160 1120 L 240 1120 L 240 1160 L 280 1160 L 280 1120 L 360 1120 L 360 1160 L 280 1160 L 280 1240 L 240 1240 L 240 1280 L 160 1280 L 160 1240 L 120 1240 L 120 1160 L 160 1160 L 160 1120 Z M 160 1160 L 160 1200 L 200 1200 L 200 1240 L 240 1240 L 240 1160 L 160 1160 Z " /><path fill="rgb(165,192,229)" stroke="rgb(165,192,229)" stroke-width="1" opacity="1" d="M 440 1120 L 480 1120 L 480 1160 L 440 1160 L 440 1120 Z " /><path fill="rgb(165,192,229)" stroke="rgb(165,192,229)" stroke-width="1" opacity="1" d="M 520 1120 L 640 1120 L 640 1160 L 600 1160 L 600 1240 L 879.5 1240 L 880 1240.5 L 880 1280 L 440.5 1280 L 440 1279.5 L 440 1200 L 520 1200 L 520 1120 Z " /><path fill="rgb(44,60,93)" stroke="rgb(44,60,93)" stroke-width="1" opacity="1" d="M 760 40 L 800 40 L 800 160 L 760 160 L 760 200 L 720 200 L 720 240 L 560.5 240 L 560 240.5 L 560 280 L 480 280 L 480 240 L 560 240 L 560 200.5 L 560.5 200 L 720 200 L 720 160 L 759.5 160 L 760 159.5 L 760 40 Z " /><path fill="rgb(44,60,93)" stroke="rgb(44,60,93)" stroke-width="1" opacity="1" d="M 840 80 L 880 80 L 880 120 L 840 120 L 840 80 Z " /><path fill="rgb(44,60,93)" stroke="rgb(44,60,93)" stroke-width="1" opacity="1" d="M 880 160 L 920 160 L 920 200 L 880 200 L 880 160 Z " /><path fill="rgb(44,60,93)" stroke="rgb(44,60,93)" stroke-width="1" opacity="1" d="M 80 200 L 200 200 L 200 240 L 80 240 L 80 280 L 120 280 L 120 320 L 80 320 L 80 280 L 40 280 L 40 240 L 80 240 L 80 200 Z " /><path fill="rgb(44,60,93)" stroke="rgb(44,60,93)" stroke-width="1" opacity="1" d="M 240 240 L 280 240 L 280 280 L 320 280 L 320 320 L 280 320 L 280 280 L 240 280 L 240 240 Z " /><path fill="rgb(44,60,93)" stroke="rgb(44,60,93)" stroke-width="1" opacity="1" d="M 760 240 L 800 240 L 800 280 L 760 280 L 760 240 Z " /><path fill="rgb(44,60,93)" stroke="rgb(44,60,93)" stroke-width="1" opacity="1" d="M 920 240 L 960 240 L 960 280 L 920 280 L 920 240 Z " /><path fill="rgb(44,60,93)" stroke="rgb(44,60,93)" stroke-width="1" opacity="1" d="M 400 280 L 440 280 L 440 320 L 400 320 L 400 360 L 360 360 L 360 320 L 400 320 L 400 280 Z " /><path fill="rgb(44,60,93)" stroke="rgb(44,60,93)" stroke-width="1" opacity="1" d="M 840 280 L 880 280 L 880 320 L 840 320 L 840 280 Z " /><path fill="rgb(44,60,93)" stroke="rgb(44,60,93)" stroke-width="1" opacity="1" d="M 120 360 L 160 360 L 160 400 L 200 400 L 200 520 L 280 520 L 280 640 L 240 640 L 240 560 L 200 560 L 200 520 L 160 520 L 160 400.5 L 159.5 400 L 120 400 L 120 360 Z " /><path fill="rgb(44,60,93)" stroke="rgb(44,60,93)" stroke-width="1" opacity="1" d="M 320 560 L 360 560 L 360 600 L 320 600 L 320 560 Z " /><path fill="rgb(44,60,93)" stroke="rgb(44,60,93)" stroke-width="1" opacity="1" d="M 1120 560 L 1160 560 L 1160 600 L 1120 600 L 1120 560 Z " /><path fill="rgb(44,60,93)" stroke="rgb(44,60,93)" stroke-width="1" opacity="1" d="M 800 760 L 840 760 L 840 800 L 800 800 L 800 760 Z " /><path fill="rgb(44,60,93)" stroke="rgb(44,60,93)" stroke-width="1" opacity="1" d="M 160 800 L 200 800 L 200 880 L 160 880 L 160 1000 L 200 1000 L 200 960 L 240 960 L 240 880 L 280 880 L 280 959.5 L 279.5 960 L 240 960 L 240 1040 L 160 1040 L 160 1000 L 120 1000 L 120 920 L 80 920 L 80 960 L 40 960 L 40 1040 L 0 1040 L 0 960 L 40 960 L 40 920 L 80 920 L 80 880 L 160 880 L 160 800 Z " /><path fill="rgb(44,60,93)" stroke="rgb(44,60,93)" stroke-width="1" opacity="1" d="M 640 800 L 680 800 L 680 840 L 640 840 L 640 800 Z " /><path fill="rgb(44,60,93)" stroke="rgb(44,60,93)" stroke-width="1" opacity="1" d="M 320 840 L 360 840 L 360 920 L 320 920 L 320 840 Z " /><path fill="rgb(44,60,93)" stroke="rgb(44,60,93)" stroke-width="1" opacity="1" d="M 720 880 L 760 880 L 760 920 L 720 920 L 720 880 Z " /><path fill="rgb(44,60,93)" stroke="rgb(44,60,93)" stroke-width="1" opacity="1" d="M 880 960 L 920 960 L 920 1000 L 880 1000 L 880 960 Z " /><path fill="rgb(44,60,93)" stroke="rgb(44,60,93)" stroke-width="1" opacity="1" d="M 400 1000 L 440 1000 L 440 1040 L 480 1040 L 480 1080 L 440 1080 L 440 1120 L 400 1120 L 400 1080 L 360 1080 L 360 1040 L 400 1040 L 400 1000 Z M 400 1040 L 400 1080 L 440 1080 L 440 1040 L 400 1040 Z " /><path fill="rgb(44,60,93)" stroke="rgb(44,60,93)" stroke-width="1" opacity="1" d="M 600 1000 L 640 1000 L 640 1040 L 600 1040 L 600 1000 Z " /><path fill="rgb(44,60,93)" stroke="rgb(44,60,93)" stroke-width="1" opacity="1" d="M 160 1080 L 200 1080 L 200 1120 L 160 1120 L 160 1080 Z " /><path fill="rgb(44,60,93)" stroke="rgb(44,60,93)" stroke-width="1" opacity="1" d="M 240 1080 L 280 1080 L 280 1120 L 240 1120 L 240 1080 Z " /><path fill="rgb(44,60,93)" stroke="rgb(44,60,93)" stroke-width="1" opacity="1" d="M 80 1160 L 120 1160 L 120 1200 L 80 1200 L 80 1160 Z " /><path fill="rgb(44,60,93)" stroke="rgb(44,60,93)" stroke-width="1" opacity="1" d="M 200 1160 L 240 1160 L 240 1200 L 200 1200 L 200 1160 Z " /></svg>